0
SECTION
2
HEADER
9
$INSUNITS
70
4
0
ENDSEC
0
SECTION
2
TABLES
0
TABLE
2
LTYPE
0
LTYPE
72
65
70
64
2
CONTINUOUS
3
______
73
0
40
0
0
ENDTAB
0
TABLE
2
LAYER
0
ENDTAB
0
ENDSEC
0
SECTION
2
ENTITIES
0
LINE
8
0
10
216.9789486
20
-10.979169
11
308.0210514
21
-10.020831
0
LINE
8
0
10
310
20
-8.0209418
11
310
21
65
0
LINE
8
0
10
308
20
67
11
197
21
67
0
LINE
8
0
10
195
20
65
11
195
21
11
0
LINE
8
0
10
193
20
9
11
178
21
9
0
LINE
8
0
10
176
20
7
11
176
21
-27
0
LINE
8
0
10
178
20
-29
11
213
21
-29
0
LINE
8
0
10
215
20
-27
11
215
21
-12.9790582
0
ARC
8
0
10
308
20
-8.0209418
40
2
50
270.6030893
51
0
0
ARC
8
0
10
308
20
65
40
2
50
0
51
90
0
ARC
8
0
10
197
20
65
40
2
50
90
51
180
0
ARC
8
0
10
193
20
11
40
2
50
270
51
0
0
ARC
8
0
10
178
20
7
40
2
50
90
51
180
0
ARC
8
0
10
178
20
-27
40
2
50
180
51
270
0
ARC
8
0
10
213
20
-27
40
2
50
270
51
0
0
ARC
8
0
10
217
20
-12.9790582
40
2
50
90.6030893
51
180
0
LINE
8
0
10
83.0210514
20
-10.979169
11
-8.0210514
21
-10.020831
0
LINE
8
0
10
-10
20
-8.0209418
11
-10
21
65
0
LINE
8
0
10
-8
20
67
11
103
21
67
0
LINE
8
0
10
105
20
65
11
105
21
11
0
LINE
8
0
10
107
20
9
11
122
21
9
0
LINE
8
0
10
124
20
7
11
124
21
-27
0
LINE
8
0
10
122
20
-29
11
87
21
-29
0
LINE
8
0
10
85
20
-27
11
85
21
-12.9790582
0
ARC
8
0
10
-8
20
-8.0209418
40
2
50
180
51
269.3969107
0
ARC
8
0
10
-8
20
65
40
2
50
90
51
180
0
ARC
8
0
10
103
20
65
40
2
50
0
51
90
0
ARC
8
0
10
107
20
11
40
2
50
180
51
270
0
ARC
8
0
10
122
20
7
40
2
50
0
51
90
0
ARC
8
0
10
122
20
-27
40
2
50
270
51
0
0
ARC
8
0
10
87
20
-27
40
2
50
180
51
270
0
ARC
8
0
10
83
20
-12.9790582
40
2
50
0
51
89.3969107
0
LINE
8
0
10
-9
20
-9
11
9
21
-9
0
LINE
8
0
10
9
20
-9
11
9
21
9
0
LINE
8
0
10
9
20
9
11
-9
21
9
0
LINE
8
0
10
-9
20
9
11
-9
21
-9
0
LINE
8
0
10
-9
20
10
11
9
21
10
0
LINE
8
0
10
9
20
10
11
9
21
28
0
LINE
8
0
10
9
20
28
11
-9
21
28
0
LINE
8
0
10
-9
20
28
11
-9
21
10
0
LINE
8
0
10
-9
20
29
11
9
21
29
0
LINE
8
0
10
9
20
29
11
9
21
47
0
LINE
8
0
10
9
20
47
11
-9
21
47
0
LINE
8
0
10
-9
20
47
11
-9
21
29
0
LINE
8
0
10
-9
20
48
11
9
21
48
0
LINE
8
0
10
9
20
48
11
9
21
66
0
LINE
8
0
10
9
20
66
11
-9
21
66
0
LINE
8
0
10
-9
20
66
11
-9
21
48
0
LINE
8
0
10
10
20
-9
11
28
21
-9
0
LINE
8
0
10
28
20
-9
11
28
21
9
0
LINE
8
0
10
28
20
9
11
10
21
9
0
LINE
8
0
10
10
20
9
11
10
21
-9
0
LINE
8
0
10
10
20
10
11
28
21
10
0
LINE
8
0
10
28
20
10
11
28
21
28
0
LINE
8
0
10
28
20
28
11
10
21
28
0
LINE
8
0
10
10
20
28
11
10
21
10
0
LINE
8
0
10
10
20
29
11
28
21
29
0
LINE
8
0
10
28
20
29
11
28
21
47
0
LINE
8
0
10
28
20
47
11
10
21
47
0
LINE
8
0
10
10
20
47
11
10
21
29
0
LINE
8
0
10
10
20
48
11
28
21
48
0
LINE
8
0
10
28
20
48
11
28
21
66
0
LINE
8
0
10
28
20
66
11
10
21
66
0
LINE
8
0
10
10
20
66
11
10
21
48
0
LINE
8
0
10
29
20
-9
11
47
21
-9
0
LINE
8
0
10
47
20
-9
11
47
21
9
0
LINE
8
0
10
47
20
9
11
29
21
9
0
LINE
8
0
10
29
20
9
11
29
21
-9
0
LINE
8
0
10
29
20
10
11
47
21
10
0
LINE
8
0
10
47
20
10
11
47
21
28
0
LINE
8
0
10
47
20
28
11
29
21
28
0
LINE
8
0
10
29
20
28
11
29
21
10
0
LINE
8
0
10
29
20
29
11
47
21
29
0
LINE
8
0
10
47
20
29
11
47
21
47
0
LINE
8
0
10
47
20
47
11
29
21
47
0
LINE
8
0
10
29
20
47
11
29
21
29
0
LINE
8
0
10
29
20
48
11
47
21
48
0
LINE
8
0
10
47
20
48
11
47
21
66
0
LINE
8
0
10
47
20
66
11
29
21
66
0
LINE
8
0
10
29
20
66
11
29
21
48
0
LINE
8
0
10
76.5
20
-9
11
94.5
21
-9
0
LINE
8
0
10
94.5
20
-9
11
94.5
21
9
0
LINE
8
0
10
94.5
20
9
11
76.5
21
9
0
LINE
8
0
10
76.5
20
9
11
76.5
21
-9
0
LINE
8
0
10
48
20
10
11
66
21
10
0
LINE
8
0
10
66
20
10
11
66
21
28
0
LINE
8
0
10
66
20
28
11
48
21
28
0
LINE
8
0
10
48
20
28
11
48
21
10
0
LINE
8
0
10
48
20
29
11
66
21
29
0
LINE
8
0
10
66
20
29
11
66
21
47
0
LINE
8
0
10
66
20
47
11
48
21
47
0
LINE
8
0
10
48
20
47
11
48
21
29
0
LINE
8
0
10
48
20
48
11
66
21
48
0
LINE
8
0
10
66
20
48
11
66
21
66
0
LINE
8
0
10
66
20
66
11
48
21
66
0
LINE
8
0
10
48
20
66
11
48
21
48
0
LINE
8
0
10
67
20
10
11
85
21
10
0
LINE
8
0
10
85
20
10
11
85
21
28
0
LINE
8
0
10
85
20
28
11
67
21
28
0
LINE
8
0
10
67
20
28
11
67
21
10
0
LINE
8
0
10
67
20
29
11
85
21
29
0
LINE
8
0
10
85
20
29
11
85
21
47
0
LINE
8
0
10
85
20
47
11
67
21
47
0
LINE
8
0
10
67
20
47
11
67
21
29
0
LINE
8
0
10
67
20
48
11
85
21
48
0
LINE
8
0
10
85
20
48
11
85
21
66
0
LINE
8
0
10
85
20
66
11
67
21
66
0
LINE
8
0
10
67
20
66
11
67
21
48
0
LINE
8
0
10
86
20
10
11
104
21
10
0
LINE
8
0
10
104
20
10
11
104
21
28
0
LINE
8
0
10
104
20
28
11
86
21
28
0
LINE
8
0
10
86
20
28
11
86
21
10
0
LINE
8
0
10
86
20
29
11
104
21
29
0
LINE
8
0
10
104
20
29
11
104
21
47
0
LINE
8
0
10
104
20
47
11
86
21
47
0
LINE
8
0
10
86
20
47
11
86
21
29
0
LINE
8
0
10
86
20
48
11
104
21
48
0
LINE
8
0
10
104
20
48
11
104
21
66
0
LINE
8
0
10
104
20
66
11
86
21
66
0
LINE
8
0
10
86
20
66
11
86
21
48
0
LINE
8
0
10
86
20
-28
11
104
21
-28
0
LINE
8
0
10
104
20
-28
11
104
21
-10
0
LINE
8
0
10
104
20
-10
11
86
21
-10
0
LINE
8
0
10
86
20
-10
11
86
21
-28
0
LINE
8
0
10
105
20
-28
11
123
21
-28
0
LINE
8
0
10
123
20
-28
11
123
21
-10
0
LINE
8
0
10
123
20
-10
11
105
21
-10
0
LINE
8
0
10
105
20
-10
11
105
21
-28
0
LINE
8
0
10
291
20
-9
11
309
21
-9
0
LINE
8
0
10
309
20
-9
11
309
21
9
0
LINE
8
0
10
309
20
9
11
291
21
9
0
LINE
8
0
10
291
20
9
11
291
21
-9
0
LINE
8
0
10
291
20
10
11
309
21
10
0
LINE
8
0
10
309
20
10
11
309
21
28
0
LINE
8
0
10
309
20
28
11
291
21
28
0
LINE
8
0
10
291
20
28
11
291
21
10
0
LINE
8
0
10
291
20
29
11
309
21
29
0
LINE
8
0
10
309
20
29
11
309
21
47
0
LINE
8
0
10
309
20
47
11
291
21
47
0
LINE
8
0
10
291
20
47
11
291
21
29
0
LINE
8
0
10
291
20
48
11
309
21
48
0
LINE
8
0
10
309
20
48
11
309
21
66
0
LINE
8
0
10
309
20
66
11
291
21
66
0
LINE
8
0
10
291
20
66
11
291
21
48
0
LINE
8
0
10
272
20
-9
11
290
21
-9
0
LINE
8
0
10
290
20
-9
11
290
21
9
0
LINE
8
0
10
290
20
9
11
272
21
9
0
LINE
8
0
10
272
20
9
11
272
21
-9
0
LINE
8
0
10
272
20
10
11
290
21
10
0
LINE
8
0
10
290
20
10
11
290
21
28
0
LINE
8
0
10
290
20
28
11
272
21
28
0
LINE
8
0
10
272
20
28
11
272
21
10
0
LINE
8
0
10
272
20
29
11
290
21
29
0
LINE
8
0
10
290
20
29
11
290
21
47
0
LINE
8
0
10
290
20
47
11
272
21
47
0
LINE
8
0
10
272
20
47
11
272
21
29
0
LINE
8
0
10
272
20
48
11
290
21
48
0
LINE
8
0
10
290
20
48
11
290
21
66
0
LINE
8
0
10
290
20
66
11
272
21
66
0
LINE
8
0
10
272
20
66
11
272
21
48
0
LINE
8
0
10
253
20
-9
11
271
21
-9
0
LINE
8
0
10
271
20
-9
11
271
21
9
0
LINE
8
0
10
271
20
9
11
253
21
9
0
LINE
8
0
10
253
20
9
11
253
21
-9
0
LINE
8
0
10
253
20
10
11
271
21
10
0
LINE
8
0
10
271
20
10
11
271
21
28
0
LINE
8
0
10
271
20
28
11
253
21
28
0
LINE
8
0
10
253
20
28
11
253
21
10
0
LINE
8
0
10
253
20
29
11
271
21
29
0
LINE
8
0
10
271
20
29
11
271
21
47
0
LINE
8
0
10
271
20
47
11
253
21
47
0
LINE
8
0
10
253
20
47
11
253
21
29
0
LINE
8
0
10
253
20
48
11
271
21
48
0
LINE
8
0
10
271
20
48
11
271
21
66
0
LINE
8
0
10
271
20
66
11
253
21
66
0
LINE
8
0
10
253
20
66
11
253
21
48
0
LINE
8
0
10
205.5
20
-9
11
223.5
21
-9
0
LINE
8
0
10
223.5
20
-9
11
223.5
21
9
0
LINE
8
0
10
223.5
20
9
11
205.5
21
9
0
LINE
8
0
10
205.5
20
9
11
205.5
21
-9
0
LINE
8
0
10
234
20
10
11
252
21
10
0
LINE
8
0
10
252
20
10
11
252
21
28
0
LINE
8
0
10
252
20
28
11
234
21
28
0
LINE
8
0
10
234
20
28
11
234
21
10
0
LINE
8
0
10
234
20
29
11
252
21
29
0
LINE
8
0
10
252
20
29
11
252
21
47
0
LINE
8
0
10
252
20
47
11
234
21
47
0
LINE
8
0
10
234
20
47
11
234
21
29
0
LINE
8
0
10
234
20
48
11
252
21
48
0
LINE
8
0
10
252
20
48
11
252
21
66
0
LINE
8
0
10
252
20
66
11
234
21
66
0
LINE
8
0
10
234
20
66
11
234
21
48
0
LINE
8
0
10
215
20
10
11
233
21
10
0
LINE
8
0
10
233
20
10
11
233
21
28
0
LINE
8
0
10
233
20
28
11
215
21
28
0
LINE
8
0
10
215
20
28
11
215
21
10
0
LINE
8
0
10
215
20
29
11
233
21
29
0
LINE
8
0
10
233
20
29
11
233
21
47
0
LINE
8
0
10
233
20
47
11
215
21
47
0
LINE
8
0
10
215
20
47
11
215
21
29
0
LINE
8
0
10
215
20
48
11
233
21
48
0
LINE
8
0
10
233
20
48
11
233
21
66
0
LINE
8
0
10
233
20
66
11
215
21
66
0
LINE
8
0
10
215
20
66
11
215
21
48
0
LINE
8
0
10
196
20
10
11
214
21
10
0
LINE
8
0
10
214
20
10
11
214
21
28
0
LINE
8
0
10
214
20
28
11
196
21
28
0
LINE
8
0
10
196
20
28
11
196
21
10
0
LINE
8
0
10
196
20
29
11
214
21
29
0
LINE
8
0
10
214
20
29
11
214
21
47
0
LINE
8
0
10
214
20
47
11
196
21
47
0
LINE
8
0
10
196
20
47
11
196
21
29
0
LINE
8
0
10
196
20
48
11
214
21
48
0
LINE
8
0
10
214
20
48
11
214
21
66
0
LINE
8
0
10
214
20
66
11
196
21
66
0
LINE
8
0
10
196
20
66
11
196
21
48
0
LINE
8
0
10
196
20
-28
11
214
21
-28
0
LINE
8
0
10
214
20
-28
11
214
21
-10
0
LINE
8
0
10
214
20
-10
11
196
21
-10
0
LINE
8
0
10
196
20
-10
11
196
21
-28
0
LINE
8
0
10
177
20
-28
11
195
21
-28
0
LINE
8
0
10
195
20
-28
11
195
21
-10
0
LINE
8
0
10
195
20
-10
11
177
21
-10
0
LINE
8
0
10
177
20
-10
11
177
21
-28
0
ENDSEC
0
EOF