0
SECTION
2
HEADER
9
$INSUNITS
70
4
0
ENDSEC
0
SECTION
2
TABLES
0
TABLE
2
LTYPE
0
LTYPE
72
65
70
64
2
CONTINUOUS
3
______
73
0
40
0
0
ENDTAB
0
TABLE
2
LAYER
0
ENDTAB
0
ENDSEC
0
SECTION
2
ENTITIES
0
LINE
8
0
10
216.9789486
20
-10.979169
11
308.0210514
21
-10.020831
0
LINE
8
0
10
310
20
-8.0209418
11
310
21
65
0
LINE
8
0
10
308
20
67
11
197
21
67
0
LINE
8
0
10
195
20
65
11
195
21
11
0
LINE
8
0
10
193
20
9
11
178
21
9
0
LINE
8
0
10
176
20
7
11
176
21
-27
0
LINE
8
0
10
178
20
-29
11
213
21
-29
0
LINE
8
0
10
215
20
-27
11
215
21
-12.9790582
0
ARC
8
0
10
308
20
-8.0209418
40
2
50
270.6030893
51
0
0
ARC
8
0
10
308
20
65
40
2
50
0
51
90
0
ARC
8
0
10
197
20
65
40
2
50
90
51
180
0
ARC
8
0
10
193
20
11
40
2
50
270
51
0
0
ARC
8
0
10
178
20
7
40
2
50
90
51
180
0
ARC
8
0
10
178
20
-27
40
2
50
180
51
270
0
ARC
8
0
10
213
20
-27
40
2
50
270
51
0
0
ARC
8
0
10
217
20
-12.9790582
40
2
50
90.6030893
51
180
0
LINE
8
0
10
83.0210514
20
-10.979169
11
-8.0210514
21
-10.020831
0
LINE
8
0
10
-10
20
-8.0209418
11
-10
21
65
0
LINE
8
0
10
-8
20
67
11
103
21
67
0
LINE
8
0
10
105
20
65
11
105
21
11
0
LINE
8
0
10
107
20
9
11
122
21
9
0
LINE
8
0
10
124
20
7
11
124
21
-27
0
LINE
8
0
10
122
20
-29
11
87
21
-29
0
LINE
8
0
10
85
20
-27
11
85
21
-12.9790582
0
ARC
8
0
10
-8
20
-8.0209418
40
2
50
180
51
269.3969107
0
ARC
8
0
10
-8
20
65
40
2
50
90
51
180
0
ARC
8
0
10
103
20
65
40
2
50
0
51
90
0
ARC
8
0
10
107
20
11
40
2
50
180
51
270
0
ARC
8
0
10
122
20
7
40
2
50
0
51
90
0
ARC
8
0
10
122
20
-27
40
2
50
270
51
0
0
ARC
8
0
10
87
20
-27
40
2
50
180
51
270
0
ARC
8
0
10
83
20
-12.9790582
40
2
50
0
51
89.3969107
0
ENDSEC
0
EOF